# xmcd CD database file
#
# Track frame offsets:
#	150
#	25871
#	46309
#	67054
#	88143
#	108809
#	126604
#	154185
#	178152
#	201137
#	228247
#	252717
#
# Disc length: 3619 seconds
#
# Revision: 1
# Processed by: cddbd v1.5.1PL0 Copyright (c) Steve Scherf et al.
# Submitted via: CDex 1.51
#
DISCID=ac0e210c
DTITLE=Various Artist - The Greatest Cuban Selection Ever CD2
DYEAR=1900
DGENRE=Salsa
TTITLE0=Orlando Cachaito Lopez - Mis Dos Pequenas
TTITLE1=Ruben Gonzalez - La Enganador
TTITLE2=Havana Allstars Charanga - El Niche
TTITLE3=Maraca - Havana Danzon
TTITLE4=Laito Jr - Gozala
TTITLE5=Tito Rodriguez - Nunca
TTITLE6=Ruben Gonzalez - Rico Vacilon
TTITLE7=Orquesta Aragon - Cha Cuba
TTITLE8=Tito Rodriguez - No Te Quedes Con Las Ganas
TTITLE9=Rolo Martinez - Mi Son Mi Son Mi Son
TTITLE10=Laito - Sonoran Los Canonazos
TTITLE11=Caridad Hierrezuelo Con El Conjunto Caney - Ultima Noticia
EXTD=
EXTT0=
EXTT1=
EXTT2=
EXTT3=
EXTT4=
EXTT5=
EXTT6=
EXTT7=
EXTT8=
EXTT9=
EXTT10=
EXTT11=
PLAYORDER=
